<svg xmlns="http://www.w3.org/2000/svg" width="20" height="25.75" viewBox="0 0 20 25.75">
  <g id="trash" transform="translate(-3.375)">
    <path id="Path_9" data-name="Path 9" d="M12.019,12.375a.817.817,0,0,1,.769.858v10.3a.774.774,0,1,1-1.538,0v-10.3A.817.817,0,0,1,12.019,12.375Zm3.846,0a.817.817,0,0,1,.769.858v10.3a.774.774,0,1,1-1.538,0v-10.3A.817.817,0,0,1,15.865,12.375Zm4.615.858a.774.774,0,1,0-1.538,0v10.3a.774.774,0,1,0,1.538,0Z" transform="translate(-2.49 -2.933)" fill="#ff80b9"/>
    <path id="Path_10" data-name="Path 10" d="M23.375,5.15a1.635,1.635,0,0,1-1.538,1.717h-.769v15.45A3.27,3.27,0,0,1,17.99,25.75H8.76a3.27,3.27,0,0,1-3.077-3.433V6.867H4.913A1.635,1.635,0,0,1,3.375,5.15V3.433A1.635,1.635,0,0,1,4.913,1.717H10.3A1.635,1.635,0,0,1,11.837,0h3.077a1.635,1.635,0,0,1,1.538,1.717h5.385a1.635,1.635,0,0,1,1.538,1.717ZM7.4,6.867l-.182.1V22.317A1.635,1.635,0,0,0,8.76,24.033H17.99a1.635,1.635,0,0,0,1.538-1.717V6.968l-.181-.1ZM4.913,5.15V3.433H21.837V5.15Z" transform="translate(0 0)" fill="#ff80b9" fill-rule="evenodd"/>
  </g>
</svg>
