<svg xmlns="http://www.w3.org/2000/svg" width="25.5" height="25" viewBox="0 0 25.5 25">
  <g id="pencil" transform="translate(-2.247 -2.25)" opacity="0.7">
    <path id="Path_11" data-name="Path 11" d="M21,2.773a1.847,1.847,0,0,1,2.575,0l3.643,3.571a1.761,1.761,0,0,1,0,2.525L10.822,24.94a1.827,1.827,0,0,1-.711.432L4.647,27.158a1.847,1.847,0,0,1-1.866-.43,1.761,1.761,0,0,1-.44-1.829l1.821-5.357a1.781,1.781,0,0,1,.44-.7L20.995,2.772Zm1.288,1.263,3.643,3.571L9.535,23.679,4.071,25.464l1.821-5.357Z" fill="#4a6572" fill-rule="evenodd"/>
    <path id="Path_12" data-name="Path 12" d="M21.759,12.18,17.656,8.2l1.162-1.126,4.1,3.976L21.76,12.18ZM6.75,17.979v.8a.808.808,0,0,0,.82.8h.82v.8a.808.808,0,0,0,.82.8h.82v.8a.808.808,0,0,0,.82.8h.82V20.364a.808.808,0,0,0-.82-.8h-.82v-.8a.808.808,0,0,0-.82-.8Z" fill="#4a6572" fill-rule="evenodd"/>
  </g>
</svg>
