<svg xmlns="http://www.w3.org/2000/svg" width="20" height="20" viewBox="0 0 20 20">
  <g id="Icon_ionic-ios-book" data-name="Icon ionic-ios-book" transform="translate(-3.382 -4.5)">
    <path id="Path_2" data-name="Path 2" d="M8.091,4.507c2.6,0,4.81,1.453,4.81,4.271v.833h0V24.4a.094.094,0,0,1-.183.036v-.005A4.655,4.655,0,0,0,8.76,20.759a5.864,5.864,0,0,0-4.478,1.933.5.5,0,0,1-.317.151H3.748a.359.359,0,0,1-.366-.318V7.429C3.377,5.757,5.489,4.507,8.091,4.507Z" transform="translate(0 -0.002)" fill="#4a6572"/>
    <path id="Path_3" data-name="Path 3" d="M23.513,4.5c-2.6,0-4.81,1.453-4.81,4.271V9.6h0V24.393a.094.094,0,0,0,.183.036v-.005a4.7,4.7,0,0,1,3.959-3.672,5.85,5.85,0,0,1,4.478,1.933.528.528,0,0,0,.317.151h.216a.359.359,0,0,0,.366-.318V7.417C28.227,5.75,26.115,4.5,23.513,4.5Z" transform="translate(-4.84)" fill="#4a6572"/>
  </g>
</svg>
