<svg xmlns="http://www.w3.org/2000/svg" width="20" height="20" viewBox="0 0 20 20">
  <g id="Icon_ionic-ios-qr-scanner" data-name="Icon ionic-ios-qr-scanner" transform="translate(-3.375 -4.5)">
    <path id="Path_4" data-name="Path 4" d="M9.433,4.5H6.606A3.374,3.374,0,0,0,3.375,8v3.063a.7.7,0,0,0,.673.729.7.7,0,0,0,.673-.729V7.948a2.079,2.079,0,0,1,.563-1.365,1.776,1.776,0,0,1,1.274-.625H9.433a.732.732,0,0,0,0-1.458Z" fill="#fff"/>
    <path id="Path_5" data-name="Path 5" d="M26.329,4.5H23.454a.732.732,0,0,0,0,1.458h2.875a1.776,1.776,0,0,1,1.274.625,2.079,2.079,0,0,1,.563,1.365v3.115a.675.675,0,1,0,1.346,0V7.948A3.327,3.327,0,0,0,26.329,4.5Z" transform="translate(-6.137)" fill="#fff"/>
    <path id="Path_6" data-name="Path 6" d="M9.433,27.49H6.558a1.776,1.776,0,0,1-1.274-.625A2.079,2.079,0,0,1,4.721,25.5V22.385a.7.7,0,0,0-.673-.729.7.7,0,0,0-.673.729V25.5a3.327,3.327,0,0,0,3.183,3.448H9.433a.732.732,0,0,0,0-1.458Z" transform="translate(0 -4.448)" fill="#fff"/>
    <path id="Path_7" data-name="Path 7" d="M28.839,21.656a.7.7,0,0,0-.673.729V25.5a2.079,2.079,0,0,1-.562,1.365,1.776,1.776,0,0,1-1.274.625H23.454a.732.732,0,0,0,0,1.458h2.827a3.378,3.378,0,0,0,3.231-3.5V22.385A.7.7,0,0,0,28.839,21.656Z" transform="translate(-6.137 -4.448)" fill="#fff"/>
  </g>
</svg>
